# xmcd
# Track frame offsets:
# 150
# 19781
# 38584
# 58647
# 77767
# 95697
# 107895
# 129334
# 149014
# 169969
# 190788
#
# Disc length: 3124 seconds
# Revision: 0
# Processed by: cddbd v1.4PL0 Copyright (c) Steve Scherf et al.
# Submitted via: VisiTrax 2.9.5.181 - For more info visit www.synapsa.com
#
DISCID=940c320b
DTITLE=Mulcahy, Mark - Fathering
DYEAR=1999
DGENRE=
TTITLE0=Hey Self Defeater
TTITLE1=Hurry, Please Hurry
TTITLE2=I Woke Up In The Mayflower
TTITLE3=Tempted
TTITLE4=In The Afternoon
TTITLE5=Jason
TTITLE6=Ciao My Shining Star
TTITLE7=Apartment Murders
TTITLE8=Pasadena Love Story
TTITLE9=Bill Jocko
TTITLE10=Fathering
EXTD=
EXTT0=
EXTT1=
EXTT2=
EXTT3=
EXTT4=
EXTT5=
EXTT6=
EXTT7=
EXTT8=
EXTT9=
EXTT10=
PLAYORDER=
